<mxfile host="app.diagrams.net" modified="2022-07-11T17:33:48.001Z" agent="5.0 (Windows NT 10.0; Win64; x64) AppleWebKit/537.36 (KHTML, like Gecko) Chrome/103.0.5060.53 Safari/537.36 Edg/103.0.1264.37" etag="wj_C5QpzdPhf9bzp_enA" version="20.0.4" type="github">
  <diagram id="QKyKJf3zI5OaiFUIXnoO" name="Page-1">
    <mxGraphModel dx="2633" dy="2139" grid="1" gridSize="10" guides="1" tooltips="1" connect="1" arrows="1" fold="1" page="1" pageScale="1" pageWidth="827" pageHeight="1169" math="0" shadow="0">
      <root>
        <mxCell id="0" />
        <mxCell id="1" parent="0" />
        <mxCell id="owIcJipwhkimLPVroond-115" value="" style="rounded=0;whiteSpace=wrap;html=1;" parent="1" vertex="1">
          <mxGeometry x="-367" y="-942" width="1880" height="2185" as="geometry" />
        </mxCell>
        <mxCell id="owIcJipwhkimLPVroond-87" style="edgeStyle=none;rounded=0;orthogonalLoop=1;jettySize=auto;html=1;entryX=1;entryY=0.5;entryDx=0;entryDy=0;endArrow=none;endFill=0;" parent="1" source="owIcJipwhkimLPVroond-2" target="owIcJipwhkimLPVroond-35" edge="1">
          <mxGeometry relative="1" as="geometry" />
        </mxCell>
        <mxCell id="owIcJipwhkimLPVroond-130" style="edgeStyle=none;rounded=0;orthogonalLoop=1;jettySize=auto;html=1;endArrow=none;endFill=0;" parent="1" source="owIcJipwhkimLPVroond-2" target="owIcJipwhkimLPVroond-38" edge="1">
          <mxGeometry relative="1" as="geometry" />
        </mxCell>
        <mxCell id="owIcJipwhkimLPVroond-131" style="edgeStyle=none;rounded=0;orthogonalLoop=1;jettySize=auto;html=1;endArrow=none;endFill=0;exitX=0;exitY=0.3333333333333333;exitDx=0;exitDy=0;exitPerimeter=0;" parent="1" source="TZ2L-xh6pbnUtgHGij2e-4" target="owIcJipwhkimLPVroond-124" edge="1">
          <mxGeometry relative="1" as="geometry" />
        </mxCell>
        <mxCell id="owIcJipwhkimLPVroond-153" style="edgeStyle=none;rounded=0;orthogonalLoop=1;jettySize=auto;html=1;entryX=0.923;entryY=0.672;entryDx=0;entryDy=0;entryPerimeter=0;endArrow=none;endFill=0;" parent="1" source="owIcJipwhkimLPVroond-2" target="owIcJipwhkimLPVroond-150" edge="1">
          <mxGeometry relative="1" as="geometry" />
        </mxCell>
        <mxCell id="owIcJipwhkimLPVroond-155" style="edgeStyle=none;rounded=0;orthogonalLoop=1;jettySize=auto;html=1;entryX=1;entryY=0.5;entryDx=0;entryDy=0;endArrow=none;endFill=0;" parent="1" source="owIcJipwhkimLPVroond-2" target="owIcJipwhkimLPVroond-30" edge="1">
          <mxGeometry relative="1" as="geometry" />
        </mxCell>
        <mxCell id="owIcJipwhkimLPVroond-188" style="edgeStyle=none;rounded=0;orthogonalLoop=1;jettySize=auto;html=1;entryX=1;entryY=0.5;entryDx=0;entryDy=0;endArrow=none;endFill=0;" parent="1" source="owIcJipwhkimLPVroond-2" target="owIcJipwhkimLPVroond-17" edge="1">
          <mxGeometry relative="1" as="geometry" />
        </mxCell>
        <mxCell id="owIcJipwhkimLPVroond-237" style="edgeStyle=none;rounded=0;orthogonalLoop=1;jettySize=auto;html=1;entryX=0.551;entryY=0.918;entryDx=0;entryDy=0;startArrow=none;startFill=0;endArrow=none;endFill=0;entryPerimeter=0;" parent="1" source="owIcJipwhkimLPVroond-2" target="owIcJipwhkimLPVroond-89" edge="1">
          <mxGeometry relative="1" as="geometry" />
        </mxCell>
        <mxCell id="GZ2Jp8MdcbIaSBcQHjlq-1" style="rounded=0;orthogonalLoop=1;jettySize=auto;html=1;entryX=1;entryY=0.5;entryDx=0;entryDy=0;endArrow=none;endFill=0;" parent="1" source="owIcJipwhkimLPVroond-2" target="TZ2L-xh6pbnUtgHGij2e-2" edge="1">
          <mxGeometry relative="1" as="geometry" />
        </mxCell>
        <mxCell id="owIcJipwhkimLPVroond-2" value="Customer" style="shape=umlActor;verticalLabelPosition=bottom;verticalAlign=top;html=1;outlineConnect=0;" parent="1" vertex="1">
          <mxGeometry x="1580" y="410" width="30" height="60" as="geometry" />
        </mxCell>
        <mxCell id="owIcJipwhkimLPVroond-152" style="edgeStyle=none;rounded=0;orthogonalLoop=1;jettySize=auto;html=1;entryX=0.963;entryY=0.524;entryDx=0;entryDy=0;entryPerimeter=0;endArrow=none;endFill=0;" parent="1" source="owIcJipwhkimLPVroond-4" target="owIcJipwhkimLPVroond-150" edge="1">
          <mxGeometry relative="1" as="geometry" />
        </mxCell>
        <mxCell id="owIcJipwhkimLPVroond-195" style="edgeStyle=none;rounded=0;orthogonalLoop=1;jettySize=auto;html=1;entryX=1;entryY=0;entryDx=0;entryDy=0;endArrow=none;endFill=0;" parent="1" source="owIcJipwhkimLPVroond-4" target="owIcJipwhkimLPVroond-76" edge="1">
          <mxGeometry relative="1" as="geometry" />
        </mxCell>
        <mxCell id="owIcJipwhkimLPVroond-198" style="edgeStyle=none;rounded=0;orthogonalLoop=1;jettySize=auto;html=1;entryX=1;entryY=0.5;entryDx=0;entryDy=0;endArrow=none;endFill=0;" parent="1" source="owIcJipwhkimLPVroond-4" target="owIcJipwhkimLPVroond-58" edge="1">
          <mxGeometry relative="1" as="geometry" />
        </mxCell>
        <mxCell id="owIcJipwhkimLPVroond-238" style="edgeStyle=none;rounded=0;orthogonalLoop=1;jettySize=auto;html=1;startArrow=none;startFill=0;endArrow=none;endFill=0;" parent="1" source="owIcJipwhkimLPVroond-4" target="owIcJipwhkimLPVroond-217" edge="1">
          <mxGeometry relative="1" as="geometry" />
        </mxCell>
        <mxCell id="owIcJipwhkimLPVroond-263" style="edgeStyle=none;rounded=0;orthogonalLoop=1;jettySize=auto;html=1;entryX=1;entryY=0.5;entryDx=0;entryDy=0;startArrow=none;startFill=0;endArrow=none;endFill=0;" parent="1" source="owIcJipwhkimLPVroond-4" target="owIcJipwhkimLPVroond-30" edge="1">
          <mxGeometry relative="1" as="geometry" />
        </mxCell>
        <mxCell id="TZ2L-xh6pbnUtgHGij2e-1" style="rounded=0;orthogonalLoop=1;jettySize=auto;html=1;entryX=1;entryY=0.5;entryDx=0;entryDy=0;endArrow=none;endFill=0;" parent="1" source="owIcJipwhkimLPVroond-4" target="owIcJipwhkimLPVroond-35" edge="1">
          <mxGeometry relative="1" as="geometry" />
        </mxCell>
        <mxCell id="owIcJipwhkimLPVroond-4" value="Admin" style="shape=umlActor;verticalLabelPosition=bottom;verticalAlign=top;html=1;outlineConnect=0;" parent="1" vertex="1">
          <mxGeometry x="1540" y="-780" width="30" height="60" as="geometry" />
        </mxCell>
        <mxCell id="GZ2Jp8MdcbIaSBcQHjlq-8" value="extend" style="edgeStyle=none;rounded=0;orthogonalLoop=1;jettySize=auto;html=1;dashed=1;startArrow=none;startFill=0;endArrow=classic;endFill=1;" parent="1" source="owIcJipwhkimLPVroond-7" target="owIcJipwhkimLPVroond-124" edge="1">
          <mxGeometry relative="1" as="geometry" />
        </mxCell>
        <mxCell id="owIcJipwhkimLPVroond-7" value="Login with FPT&#39;s Email" style="ellipse;whiteSpace=wrap;html=1;" parent="1" vertex="1">
          <mxGeometry x="-10" y="915" width="170" height="70" as="geometry" />
        </mxCell>
        <mxCell id="owIcJipwhkimLPVroond-17" value="Manage Profile" style="ellipse;whiteSpace=wrap;html=1;" parent="1" vertex="1">
          <mxGeometry x="347.5" y="-225" width="400" height="40" as="geometry" />
        </mxCell>
        <mxCell id="owIcJipwhkimLPVroond-191" value="" style="edgeStyle=none;rounded=0;orthogonalLoop=1;jettySize=auto;html=1;endArrow=block;endFill=0;" parent="1" source="owIcJipwhkimLPVroond-18" target="owIcJipwhkimLPVroond-17" edge="1">
          <mxGeometry relative="1" as="geometry" />
        </mxCell>
        <mxCell id="owIcJipwhkimLPVroond-18" value="View Profile" style="ellipse;whiteSpace=wrap;html=1;" parent="1" vertex="1">
          <mxGeometry x="379.25" y="-155" width="132.5" height="40" as="geometry" />
        </mxCell>
        <mxCell id="owIcJipwhkimLPVroond-190" style="edgeStyle=none;rounded=0;orthogonalLoop=1;jettySize=auto;html=1;endArrow=block;endFill=0;" parent="1" source="owIcJipwhkimLPVroond-19" target="owIcJipwhkimLPVroond-17" edge="1">
          <mxGeometry relative="1" as="geometry" />
        </mxCell>
        <mxCell id="owIcJipwhkimLPVroond-19" value="Update Profile" style="ellipse;whiteSpace=wrap;html=1;" parent="1" vertex="1">
          <mxGeometry x="602.5" y="-145" width="117" height="40" as="geometry" />
        </mxCell>
        <mxCell id="owIcJipwhkimLPVroond-30" value="Get Notification" style="ellipse;whiteSpace=wrap;html=1;" parent="1" vertex="1">
          <mxGeometry x="357.5" y="-330" width="400" height="40" as="geometry" />
        </mxCell>
        <mxCell id="owIcJipwhkimLPVroond-35" value="Communicate" style="ellipse;whiteSpace=wrap;html=1;" parent="1" vertex="1">
          <mxGeometry x="375" y="-60" width="335" height="40" as="geometry" />
        </mxCell>
        <mxCell id="owIcJipwhkimLPVroond-38" value="Reset Password" style="ellipse;whiteSpace=wrap;html=1;" parent="1" vertex="1">
          <mxGeometry x="1370" y="860" width="120" height="80" as="geometry" />
        </mxCell>
        <mxCell id="owIcJipwhkimLPVroond-144" style="edgeStyle=none;rounded=0;orthogonalLoop=1;jettySize=auto;html=1;entryX=0;entryY=0.5;entryDx=0;entryDy=0;endArrow=none;endFill=0;" parent="1" source="owIcJipwhkimLPVroond-41" target="owIcJipwhkimLPVroond-30" edge="1">
          <mxGeometry relative="1" as="geometry" />
        </mxCell>
        <mxCell id="owIcJipwhkimLPVroond-146" style="edgeStyle=none;rounded=0;orthogonalLoop=1;jettySize=auto;html=1;entryX=0;entryY=0.5;entryDx=0;entryDy=0;endArrow=none;endFill=0;" parent="1" source="owIcJipwhkimLPVroond-41" target="owIcJipwhkimLPVroond-17" edge="1">
          <mxGeometry relative="1" as="geometry" />
        </mxCell>
        <mxCell id="owIcJipwhkimLPVroond-149" style="edgeStyle=none;rounded=0;orthogonalLoop=1;jettySize=auto;html=1;entryX=0;entryY=0.5;entryDx=0;entryDy=0;endArrow=none;endFill=0;" parent="1" source="owIcJipwhkimLPVroond-41" target="owIcJipwhkimLPVroond-147" edge="1">
          <mxGeometry relative="1" as="geometry" />
        </mxCell>
        <mxCell id="owIcJipwhkimLPVroond-151" style="edgeStyle=none;rounded=0;orthogonalLoop=1;jettySize=auto;html=1;entryX=0;entryY=0.5;entryDx=0;entryDy=0;endArrow=none;endFill=0;" parent="1" source="owIcJipwhkimLPVroond-41" target="owIcJipwhkimLPVroond-150" edge="1">
          <mxGeometry relative="1" as="geometry" />
        </mxCell>
        <mxCell id="owIcJipwhkimLPVroond-183" style="edgeStyle=none;rounded=0;orthogonalLoop=1;jettySize=auto;html=1;entryX=0;entryY=0.5;entryDx=0;entryDy=0;endArrow=none;endFill=0;" parent="1" source="owIcJipwhkimLPVroond-41" target="owIcJipwhkimLPVroond-76" edge="1">
          <mxGeometry relative="1" as="geometry" />
        </mxCell>
        <mxCell id="owIcJipwhkimLPVroond-194" style="edgeStyle=none;rounded=0;orthogonalLoop=1;jettySize=auto;html=1;entryX=0;entryY=0.5;entryDx=0;entryDy=0;endArrow=none;endFill=0;" parent="1" source="owIcJipwhkimLPVroond-41" target="owIcJipwhkimLPVroond-35" edge="1">
          <mxGeometry relative="1" as="geometry" />
        </mxCell>
        <mxCell id="owIcJipwhkimLPVroond-254" style="edgeStyle=none;rounded=0;orthogonalLoop=1;jettySize=auto;html=1;entryX=0;entryY=0.5;entryDx=0;entryDy=0;startArrow=none;startFill=0;endArrow=none;endFill=0;" parent="1" source="owIcJipwhkimLPVroond-41" target="owIcJipwhkimLPVroond-108" edge="1">
          <mxGeometry relative="1" as="geometry" />
        </mxCell>
        <mxCell id="fDOj5PAKN1OOYetr5FOa-4" style="rounded=0;orthogonalLoop=1;jettySize=auto;html=1;entryX=0;entryY=0.5;entryDx=0;entryDy=0;endArrow=none;endFill=0;" edge="1" parent="1" source="owIcJipwhkimLPVroond-41" target="fDOj5PAKN1OOYetr5FOa-2">
          <mxGeometry relative="1" as="geometry" />
        </mxCell>
        <mxCell id="fDOj5PAKN1OOYetr5FOa-40" style="edgeStyle=none;rounded=0;orthogonalLoop=1;jettySize=auto;html=1;startArrow=none;startFill=0;endArrow=none;endFill=0;" edge="1" parent="1" source="owIcJipwhkimLPVroond-41" target="fDOj5PAKN1OOYetr5FOa-20">
          <mxGeometry relative="1" as="geometry" />
        </mxCell>
        <mxCell id="owIcJipwhkimLPVroond-41" value="F- Freelancer" style="shape=umlActor;verticalLabelPosition=bottom;verticalAlign=top;html=1;outlineConnect=0;" parent="1" vertex="1">
          <mxGeometry x="-500" y="-90" width="30" height="60" as="geometry" />
        </mxCell>
        <mxCell id="owIcJipwhkimLPVroond-58" value="Manage User" style="ellipse;whiteSpace=wrap;html=1;" parent="1" vertex="1">
          <mxGeometry x="1130" y="-850" width="200" height="30" as="geometry" />
        </mxCell>
        <mxCell id="owIcJipwhkimLPVroond-196" style="edgeStyle=none;rounded=0;orthogonalLoop=1;jettySize=auto;html=1;entryX=0;entryY=0.5;entryDx=0;entryDy=0;endArrow=block;endFill=0;" parent="1" source="owIcJipwhkimLPVroond-60" target="owIcJipwhkimLPVroond-58" edge="1">
          <mxGeometry relative="1" as="geometry" />
        </mxCell>
        <mxCell id="owIcJipwhkimLPVroond-60" value="View Detail of User" style="ellipse;whiteSpace=wrap;html=1;" parent="1" vertex="1">
          <mxGeometry x="840" y="-890" width="230" height="30" as="geometry" />
        </mxCell>
        <mxCell id="owIcJipwhkimLPVroond-197" style="edgeStyle=none;rounded=0;orthogonalLoop=1;jettySize=auto;html=1;entryX=0;entryY=1;entryDx=0;entryDy=0;endArrow=block;endFill=0;" parent="1" source="owIcJipwhkimLPVroond-65" target="owIcJipwhkimLPVroond-58" edge="1">
          <mxGeometry relative="1" as="geometry" />
        </mxCell>
        <mxCell id="owIcJipwhkimLPVroond-65" value="Update User" style="ellipse;whiteSpace=wrap;html=1;" parent="1" vertex="1">
          <mxGeometry x="830" y="-840" width="230" height="35" as="geometry" />
        </mxCell>
        <mxCell id="owIcJipwhkimLPVroond-158" style="edgeStyle=none;rounded=0;orthogonalLoop=1;jettySize=auto;html=1;entryX=0;entryY=0;entryDx=0;entryDy=0;endArrow=block;endFill=0;" parent="1" source="owIcJipwhkimLPVroond-73" target="owIcJipwhkimLPVroond-63" edge="1">
          <mxGeometry relative="1" as="geometry" />
        </mxCell>
        <mxCell id="owIcJipwhkimLPVroond-73" value="Create Project" style="ellipse;whiteSpace=wrap;html=1;" parent="1" vertex="1">
          <mxGeometry x="839.75" y="240" width="150" height="30" as="geometry" />
        </mxCell>
        <mxCell id="owIcJipwhkimLPVroond-161" style="edgeStyle=none;rounded=0;orthogonalLoop=1;jettySize=auto;html=1;entryX=0.093;entryY=0.754;entryDx=0;entryDy=0;entryPerimeter=0;endArrow=block;endFill=0;" parent="1" source="owIcJipwhkimLPVroond-75" target="owIcJipwhkimLPVroond-63" edge="1">
          <mxGeometry relative="1" as="geometry" />
        </mxCell>
        <mxCell id="owIcJipwhkimLPVroond-75" value="Update Project" style="ellipse;whiteSpace=wrap;html=1;" parent="1" vertex="1">
          <mxGeometry x="640" y="320" width="170" height="40" as="geometry" />
        </mxCell>
        <mxCell id="owIcJipwhkimLPVroond-160" style="edgeStyle=none;rounded=0;orthogonalLoop=1;jettySize=auto;html=1;entryX=0.093;entryY=0.309;entryDx=0;entryDy=0;entryPerimeter=0;endArrow=block;endFill=0;" parent="1" source="owIcJipwhkimLPVroond-76" target="owIcJipwhkimLPVroond-63" edge="1">
          <mxGeometry relative="1" as="geometry" />
        </mxCell>
        <mxCell id="owIcJipwhkimLPVroond-76" value="View Project Detail" style="ellipse;whiteSpace=wrap;html=1;" parent="1" vertex="1">
          <mxGeometry x="420" y="90" width="306" height="40" as="geometry" />
        </mxCell>
        <mxCell id="owIcJipwhkimLPVroond-162" style="edgeStyle=none;rounded=0;orthogonalLoop=1;jettySize=auto;html=1;entryX=0;entryY=1;entryDx=0;entryDy=0;endArrow=block;endFill=0;" parent="1" source="owIcJipwhkimLPVroond-77" target="owIcJipwhkimLPVroond-63" edge="1">
          <mxGeometry relative="1" as="geometry" />
        </mxCell>
        <mxCell id="owIcJipwhkimLPVroond-77" value="Delete Project" style="ellipse;whiteSpace=wrap;html=1;" parent="1" vertex="1">
          <mxGeometry x="670" y="390" width="180" height="40" as="geometry" />
        </mxCell>
        <mxCell id="fDOj5PAKN1OOYetr5FOa-19" value="include" style="edgeStyle=none;rounded=0;orthogonalLoop=1;jettySize=auto;html=1;entryX=0.5;entryY=1;entryDx=0;entryDy=0;endArrow=classic;endFill=1;dashed=1;startArrow=none;startFill=0;" edge="1" parent="1" source="owIcJipwhkimLPVroond-89" target="fDOj5PAKN1OOYetr5FOa-15">
          <mxGeometry relative="1" as="geometry" />
        </mxCell>
        <mxCell id="owIcJipwhkimLPVroond-89" value="Make Payment to Admin" style="ellipse;whiteSpace=wrap;html=1;" parent="1" vertex="1">
          <mxGeometry x="1320" y="40" width="150" height="60" as="geometry" />
        </mxCell>
        <mxCell id="owIcJipwhkimLPVroond-108" value="Report Project" style="ellipse;whiteSpace=wrap;html=1;" parent="1" vertex="1">
          <mxGeometry x="-270" y="692.5" width="162" height="40" as="geometry" />
        </mxCell>
        <mxCell id="owIcJipwhkimLPVroond-123" value="Register" style="ellipse;whiteSpace=wrap;html=1;" parent="1" vertex="1">
          <mxGeometry x="-160" y="1030" width="120" height="80" as="geometry" />
        </mxCell>
        <mxCell id="owIcJipwhkimLPVroond-124" value="Login" style="ellipse;whiteSpace=wrap;html=1;" parent="1" vertex="1">
          <mxGeometry x="-260" y="910" width="120" height="80" as="geometry" />
        </mxCell>
        <mxCell id="owIcJipwhkimLPVroond-147" value="Search for projects" style="ellipse;whiteSpace=wrap;html=1;" parent="1" vertex="1">
          <mxGeometry x="-152.5" y="610" width="160" height="40" as="geometry" />
        </mxCell>
        <mxCell id="fDOj5PAKN1OOYetr5FOa-49" style="edgeStyle=none;rounded=0;orthogonalLoop=1;jettySize=auto;html=1;startArrow=none;startFill=0;endArrow=none;endFill=0;exitX=0.984;exitY=0.478;exitDx=0;exitDy=0;exitPerimeter=0;" edge="1" parent="1" source="owIcJipwhkimLPVroond-150" target="fDOj5PAKN1OOYetr5FOa-14">
          <mxGeometry relative="1" as="geometry" />
        </mxCell>
        <mxCell id="owIcJipwhkimLPVroond-150" value="Logout&amp;nbsp;" style="ellipse;whiteSpace=wrap;html=1;" parent="1" vertex="1">
          <mxGeometry x="286" y="-540" width="440" height="40" as="geometry" />
        </mxCell>
        <mxCell id="owIcJipwhkimLPVroond-172" style="edgeStyle=none;rounded=0;orthogonalLoop=1;jettySize=auto;html=1;exitX=1;exitY=0.5;exitDx=0;exitDy=0;dashed=1;endArrow=classic;endFill=1;" parent="1" edge="1">
          <mxGeometry relative="1" as="geometry">
            <mxPoint x="594" y="250" as="sourcePoint" />
            <mxPoint x="594" y="250" as="targetPoint" />
          </mxGeometry>
        </mxCell>
        <mxCell id="fDOj5PAKN1OOYetr5FOa-12" value="extend" style="edgeStyle=none;rounded=0;orthogonalLoop=1;jettySize=auto;html=1;endArrow=classic;endFill=1;dashed=1;" edge="1" parent="1" source="owIcJipwhkimLPVroond-174">
          <mxGeometry relative="1" as="geometry">
            <mxPoint x="-40" y="1080" as="targetPoint" />
          </mxGeometry>
        </mxCell>
        <mxCell id="owIcJipwhkimLPVroond-174" value="Register with FPT&#39;s Email." style="ellipse;whiteSpace=wrap;html=1;" parent="1" vertex="1">
          <mxGeometry x="103.5" y="1045" width="180" height="50" as="geometry" />
        </mxCell>
        <mxCell id="fDOj5PAKN1OOYetr5FOa-17" value="include" style="edgeStyle=none;rounded=0;orthogonalLoop=1;jettySize=auto;html=1;entryX=0;entryY=0.5;entryDx=0;entryDy=0;endArrow=classic;endFill=1;dashed=1;startArrow=none;startFill=0;" edge="1" parent="1" source="owIcJipwhkimLPVroond-217" target="fDOj5PAKN1OOYetr5FOa-15">
          <mxGeometry relative="1" as="geometry" />
        </mxCell>
        <mxCell id="owIcJipwhkimLPVroond-217" value="Make Payment to Freelancer" style="ellipse;whiteSpace=wrap;html=1;" parent="1" vertex="1">
          <mxGeometry x="1100" y="-275" width="150" height="50" as="geometry" />
        </mxCell>
        <mxCell id="owIcJipwhkimLPVroond-63" value="Manage Project" style="ellipse;whiteSpace=wrap;html=1;" parent="1" vertex="1">
          <mxGeometry x="865" y="340" width="230" height="40" as="geometry" />
        </mxCell>
        <mxCell id="owIcJipwhkimLPVroond-227" value="" style="edgeStyle=none;rounded=0;orthogonalLoop=1;jettySize=auto;html=1;entryX=1;entryY=0.5;entryDx=0;entryDy=0;startArrow=none;startFill=0;endArrow=none;endFill=0;" parent="1" source="owIcJipwhkimLPVroond-2" target="owIcJipwhkimLPVroond-63" edge="1">
          <mxGeometry relative="1" as="geometry">
            <mxPoint x="1290" y="306.43442622950806" as="sourcePoint" />
            <mxPoint x="695" y="165" as="targetPoint" />
          </mxGeometry>
        </mxCell>
        <mxCell id="owIcJipwhkimLPVroond-251" style="edgeStyle=none;rounded=0;orthogonalLoop=1;jettySize=auto;html=1;startArrow=none;startFill=0;endArrow=none;endFill=0;" parent="1" source="owIcJipwhkimLPVroond-244" target="owIcJipwhkimLPVroond-4" edge="1">
          <mxGeometry relative="1" as="geometry" />
        </mxCell>
        <mxCell id="fDOj5PAKN1OOYetr5FOa-18" value="include" style="edgeStyle=none;rounded=0;orthogonalLoop=1;jettySize=auto;html=1;entryX=0.5;entryY=0;entryDx=0;entryDy=0;endArrow=classic;endFill=1;dashed=1;startArrow=none;startFill=0;" edge="1" parent="1" source="owIcJipwhkimLPVroond-244" target="fDOj5PAKN1OOYetr5FOa-15">
          <mxGeometry relative="1" as="geometry" />
        </mxCell>
        <mxCell id="owIcJipwhkimLPVroond-244" value="Make Payment to Customer" style="ellipse;whiteSpace=wrap;html=1;" parent="1" vertex="1">
          <mxGeometry x="1290" y="-290" width="125" height="50" as="geometry" />
        </mxCell>
        <mxCell id="owIcJipwhkimLPVroond-259" style="edgeStyle=none;rounded=0;orthogonalLoop=1;jettySize=auto;html=1;startArrow=none;startFill=0;endArrow=block;endFill=0;" parent="1" source="owIcJipwhkimLPVroond-253" target="owIcJipwhkimLPVroond-58" edge="1">
          <mxGeometry relative="1" as="geometry" />
        </mxCell>
        <mxCell id="owIcJipwhkimLPVroond-253" value="&lt;span style=&quot;font-size: 12px;&quot;&gt;Deactivate user&lt;/span&gt;" style="ellipse;whiteSpace=wrap;html=1;" parent="1" vertex="1">
          <mxGeometry x="840" y="-780" width="220" height="40" as="geometry" />
        </mxCell>
        <mxCell id="owIcJipwhkimLPVroond-258" style="edgeStyle=none;rounded=0;orthogonalLoop=1;jettySize=auto;html=1;startArrow=none;startFill=0;endArrow=none;endFill=0;" parent="1" source="owIcJipwhkimLPVroond-255" target="owIcJipwhkimLPVroond-256" edge="1">
          <mxGeometry relative="1" as="geometry" />
        </mxCell>
        <mxCell id="owIcJipwhkimLPVroond-255" value="System handler" style="shape=umlActor;verticalLabelPosition=bottom;verticalAlign=top;html=1;outlineConnect=0;" parent="1" vertex="1">
          <mxGeometry x="-490" y="-810" width="30" height="60" as="geometry" />
        </mxCell>
        <mxCell id="owIcJipwhkimLPVroond-256" value="Push Notification" style="ellipse;whiteSpace=wrap;html=1;" parent="1" vertex="1">
          <mxGeometry x="-130" y="-830" width="300" height="80" as="geometry" />
        </mxCell>
        <mxCell id="owIcJipwhkimLPVroond-261" style="edgeStyle=none;rounded=0;orthogonalLoop=1;jettySize=auto;html=1;startArrow=none;startFill=0;endArrow=none;endFill=0;" parent="1" source="owIcJipwhkimLPVroond-260" target="owIcJipwhkimLPVroond-4" edge="1">
          <mxGeometry relative="1" as="geometry" />
        </mxCell>
        <mxCell id="owIcJipwhkimLPVroond-260" value="&lt;span style=&quot;font-size: 12px;&quot;&gt;Deactivate Project&lt;/span&gt;" style="ellipse;whiteSpace=wrap;html=1;" parent="1" vertex="1">
          <mxGeometry x="800" y="-690" width="230" height="40" as="geometry" />
        </mxCell>
        <mxCell id="TZ2L-xh6pbnUtgHGij2e-2" value="Review Freelancer" style="ellipse;whiteSpace=wrap;html=1;" parent="1" vertex="1">
          <mxGeometry x="1220" y="810" width="130" height="40" as="geometry" />
        </mxCell>
        <mxCell id="TZ2L-xh6pbnUtgHGij2e-5" style="edgeStyle=none;rounded=0;orthogonalLoop=1;jettySize=auto;html=1;endArrow=none;endFill=0;" parent="1" source="TZ2L-xh6pbnUtgHGij2e-4" target="owIcJipwhkimLPVroond-123" edge="1">
          <mxGeometry relative="1" as="geometry" />
        </mxCell>
        <mxCell id="TZ2L-xh6pbnUtgHGij2e-4" value="Guest" style="shape=umlActor;verticalLabelPosition=bottom;verticalAlign=top;html=1;outlineConnect=0;" parent="1" vertex="1">
          <mxGeometry x="-500" y="970" width="30" height="60" as="geometry" />
        </mxCell>
        <mxCell id="fDOj5PAKN1OOYetr5FOa-13" style="edgeStyle=none;rounded=0;orthogonalLoop=1;jettySize=auto;html=1;endArrow=block;endFill=0;" edge="1" parent="1" source="GZ2Jp8MdcbIaSBcQHjlq-10" target="owIcJipwhkimLPVroond-63">
          <mxGeometry relative="1" as="geometry" />
        </mxCell>
        <mxCell id="GZ2Jp8MdcbIaSBcQHjlq-10" value="Hire freelancer" style="ellipse;whiteSpace=wrap;html=1;" parent="1" vertex="1">
          <mxGeometry x="879.75" y="500" width="165" height="50" as="geometry" />
        </mxCell>
        <mxCell id="fDOj5PAKN1OOYetr5FOa-2" value="Place a Bid for a project" style="ellipse;whiteSpace=wrap;html=1;" vertex="1" parent="1">
          <mxGeometry x="-80.5" y="530" width="195" height="50" as="geometry" />
        </mxCell>
        <mxCell id="fDOj5PAKN1OOYetr5FOa-31" style="edgeStyle=none;rounded=0;orthogonalLoop=1;jettySize=auto;html=1;startArrow=none;startFill=0;endArrow=block;endFill=0;" edge="1" parent="1" source="fDOj5PAKN1OOYetr5FOa-6" target="owIcJipwhkimLPVroond-63">
          <mxGeometry relative="1" as="geometry" />
        </mxCell>
        <mxCell id="fDOj5PAKN1OOYetr5FOa-6" value="View List of Freelancers are bidding" style="ellipse;whiteSpace=wrap;html=1;" vertex="1" parent="1">
          <mxGeometry x="710" y="460" width="169.75" height="60" as="geometry" />
        </mxCell>
        <mxCell id="fDOj5PAKN1OOYetr5FOa-14" value="Payment Processor" style="shape=umlActor;verticalLabelPosition=bottom;verticalAlign=top;html=1;outlineConnect=0;" vertex="1" parent="1">
          <mxGeometry x="1670" y="-370" width="30" height="60" as="geometry" />
        </mxCell>
        <mxCell id="fDOj5PAKN1OOYetr5FOa-16" style="edgeStyle=none;rounded=0;orthogonalLoop=1;jettySize=auto;html=1;endArrow=none;endFill=0;" edge="1" parent="1" source="fDOj5PAKN1OOYetr5FOa-15" target="fDOj5PAKN1OOYetr5FOa-14">
          <mxGeometry relative="1" as="geometry" />
        </mxCell>
        <mxCell id="fDOj5PAKN1OOYetr5FOa-15" value="Process Transaction" style="ellipse;whiteSpace=wrap;html=1;" vertex="1" parent="1">
          <mxGeometry x="1280" y="-130" width="120" height="80" as="geometry" />
        </mxCell>
        <mxCell id="fDOj5PAKN1OOYetr5FOa-20" value="Manage ProgressTask&amp;nbsp;" style="ellipse;whiteSpace=wrap;html=1;" vertex="1" parent="1">
          <mxGeometry x="90" y="270" width="110" height="60" as="geometry" />
        </mxCell>
        <mxCell id="fDOj5PAKN1OOYetr5FOa-33" style="edgeStyle=none;rounded=0;orthogonalLoop=1;jettySize=auto;html=1;startArrow=none;startFill=0;endArrow=block;endFill=0;" edge="1" parent="1" source="fDOj5PAKN1OOYetr5FOa-21" target="fDOj5PAKN1OOYetr5FOa-20">
          <mxGeometry relative="1" as="geometry" />
        </mxCell>
        <mxCell id="fDOj5PAKN1OOYetr5FOa-21" value="Create Task" style="ellipse;whiteSpace=wrap;html=1;" vertex="1" parent="1">
          <mxGeometry x="213.5" y="170" width="130" height="50" as="geometry" />
        </mxCell>
        <mxCell id="fDOj5PAKN1OOYetr5FOa-34" style="edgeStyle=none;rounded=0;orthogonalLoop=1;jettySize=auto;html=1;startArrow=none;startFill=0;endArrow=block;endFill=0;" edge="1" parent="1" source="fDOj5PAKN1OOYetr5FOa-22" target="fDOj5PAKN1OOYetr5FOa-20">
          <mxGeometry relative="1" as="geometry" />
        </mxCell>
        <mxCell id="fDOj5PAKN1OOYetr5FOa-22" value="View Task Detail" style="ellipse;whiteSpace=wrap;html=1;" vertex="1" parent="1">
          <mxGeometry x="310" y="230" width="140" height="50" as="geometry" />
        </mxCell>
        <mxCell id="fDOj5PAKN1OOYetr5FOa-35" style="edgeStyle=none;rounded=0;orthogonalLoop=1;jettySize=auto;html=1;startArrow=none;startFill=0;endArrow=block;endFill=0;" edge="1" parent="1" source="fDOj5PAKN1OOYetr5FOa-23" target="fDOj5PAKN1OOYetr5FOa-20">
          <mxGeometry relative="1" as="geometry" />
        </mxCell>
        <mxCell id="fDOj5PAKN1OOYetr5FOa-23" value="Update Progress Task" style="ellipse;whiteSpace=wrap;html=1;" vertex="1" parent="1">
          <mxGeometry x="344" y="295" width="140" height="50" as="geometry" />
        </mxCell>
        <mxCell id="fDOj5PAKN1OOYetr5FOa-38" style="edgeStyle=none;rounded=0;orthogonalLoop=1;jettySize=auto;html=1;entryX=1;entryY=1;entryDx=0;entryDy=0;startArrow=none;startFill=0;endArrow=block;endFill=0;" edge="1" parent="1" source="fDOj5PAKN1OOYetr5FOa-24" target="fDOj5PAKN1OOYetr5FOa-20">
          <mxGeometry relative="1" as="geometry" />
        </mxCell>
        <mxCell id="fDOj5PAKN1OOYetr5FOa-24" value="Delete Task" style="ellipse;whiteSpace=wrap;html=1;" vertex="1" parent="1">
          <mxGeometry x="310" y="370" width="127.5" height="50" as="geometry" />
        </mxCell>
        <mxCell id="fDOj5PAKN1OOYetr5FOa-30" style="edgeStyle=none;rounded=0;orthogonalLoop=1;jettySize=auto;html=1;startArrow=none;startFill=0;endArrow=none;endFill=0;" edge="1" parent="1" source="fDOj5PAKN1OOYetr5FOa-29" target="owIcJipwhkimLPVroond-2">
          <mxGeometry relative="1" as="geometry" />
        </mxCell>
        <mxCell id="fDOj5PAKN1OOYetr5FOa-29" value="Report Freelancer" style="ellipse;whiteSpace=wrap;html=1;" vertex="1" parent="1">
          <mxGeometry x="1110" y="710" width="140" height="55" as="geometry" />
        </mxCell>
        <mxCell id="fDOj5PAKN1OOYetr5FOa-39" style="edgeStyle=none;rounded=0;orthogonalLoop=1;jettySize=auto;html=1;startArrow=none;startFill=0;endArrow=block;endFill=0;" edge="1" parent="1" source="fDOj5PAKN1OOYetr5FOa-37" target="fDOj5PAKN1OOYetr5FOa-20">
          <mxGeometry relative="1" as="geometry" />
        </mxCell>
        <mxCell id="fDOj5PAKN1OOYetr5FOa-37" value="Share Progress Task with customer" style="ellipse;whiteSpace=wrap;html=1;" vertex="1" parent="1">
          <mxGeometry x="192.5" y="430" width="147.5" height="80" as="geometry" />
        </mxCell>
        <mxCell id="fDOj5PAKN1OOYetr5FOa-46" style="edgeStyle=none;rounded=0;orthogonalLoop=1;jettySize=auto;html=1;entryX=0.628;entryY=0.978;entryDx=0;entryDy=0;entryPerimeter=0;startArrow=none;startFill=0;endArrow=block;endFill=0;" edge="1" parent="1" source="fDOj5PAKN1OOYetr5FOa-41" target="owIcJipwhkimLPVroond-63">
          <mxGeometry relative="1" as="geometry" />
        </mxCell>
        <mxCell id="fDOj5PAKN1OOYetr5FOa-41" value="View Progress Task" style="ellipse;whiteSpace=wrap;html=1;" vertex="1" parent="1">
          <mxGeometry x="1060" y="460" width="140" height="60" as="geometry" />
        </mxCell>
      </root>
    </mxGraphModel>
  </diagram>
</mxfile>
